<?xml version="1.0" standalone="no"?>
<!DOCTYPE svg PUBLIC "-//W3C//DTD SVG 20010904//EN"
 "http://www.w3.org/TR/2001/REC-SVG-20010904/DTD/svg10.dtd">
<svg version="1.0" xmlns="http://www.w3.org/2000/svg"
 width="511.000000pt" height="338.000000pt" viewBox="0 0 511.000000 338.000000"
 preserveAspectRatio="xMidYMid meet">

<g transform="translate(0.000000,338.000000) scale(0.100000,-0.100000)"
fill="#000000" stroke="none">
<path d="M1609 2783 l33 -4 -43 -22 c-62 -31 -171 -142 -202 -207 -29 -60 -50
-147 -35 -152 4 -2 14 -32 20 -67 11 -59 11 -64 -8 -77 -10 -7 -24 -18 -31
-23 -17 -15 -45 83 -32 116 14 39 11 52 -16 59 -19 5 -25 13 -25 35 0 22 -4
27 -16 22 -10 -4 -12 -8 -5 -13 7 -4 -11 -22 -42 -43 -29 -20 -63 -48 -76 -63
-12 -14 -38 -32 -57 -40 -25 -11 -48 -35 -84 -90 -59 -90 -81 -147 -121 -313
-20 -81 -41 -142 -60 -172 -20 -31 -29 -59 -29 -86 0 -26 -6 -46 -17 -54 -47
-39 -51 -137 -8 -215 12 -23 26 -68 30 -100 7 -57 26 -94 50 -94 6 0 17 -27
23 -60 29 -138 137 -288 252 -349 182 -97 439 -73 566 54 60 60 83 117 91 228
3 42 9 77 13 77 5 0 13 -30 20 -67 15 -87 34 -131 62 -143 13 -5 104 -30 203
-55 99 -26 226 -59 283 -75 56 -16 161 -39 232 -51 111 -18 132 -19 147 -8 30
26 43 76 43 171 0 51 5 133 11 183 16 127 48 184 113 199 l29 7 -27 -35 c-15
-20 -41 -66 -59 -104 -30 -63 -32 -73 -32 -182 0 -112 1 -117 37 -193 81 -168
258 -287 428 -287 68 0 176 26 244 58 63 29 171 121 194 164 12 21 18 23 65
18 42 -4 53 -9 55 -25 7 -36 22 -46 61 -39 93 17 147 57 191 144 29 58 60 177
60 232 0 42 70 198 89 198 8 0 30 12 49 26 65 50 103 186 101 356 -1 46 -4 72
-6 58 -5 -27 -21 -50 -34 -50 -4 0 1 22 13 50 20 48 20 51 3 120 -21 87 -75
201 -122 258 -19 23 -65 67 -101 96 -67 54 -219 143 -228 133 -3 -2 29 -21 70
-42 75 -37 205 -137 214 -165 3 -8 -10 -2 -28 13 -18 15 -35 25 -39 21 -3 -4
0 -9 8 -12 7 -2 22 -13 33 -24 11 -11 27 -21 37 -22 9 -2 18 -11 20 -21 3 -17
2 -18 -14 -2 -9 10 -21 14 -27 11 -6 -4 -6 -10 1 -17 6 -6 11 -15 11 -21 0 -5
-6 -3 -12 6 -7 9 -23 19 -35 23 -22 6 -21 4 9 -49 17 -30 35 -53 38 -51 4 2 7
-2 7 -10 0 -26 -16 -16 -33 21 -11 22 -22 33 -30 30 -8 -3 -25 -1 -38 4 -15 5
-27 5 -35 -3 -8 -8 -11 -8 -11 1 0 7 -4 11 -8 10 -8 -3 -79 53 -125 98 -42 41
-130 105 -164 119 -44 18 -42 26 5 19 l37 -5 -30 25 c-16 14 -36 23 -43 21 -7
-3 -10 0 -7 5 3 6 18 10 33 11 23 0 20 3 -19 19 -86 35 -281 58 -308 36 -12
-9 -13 -7 -7 14 21 65 19 88 -8 113 -15 14 -40 27 -57 31 -40 8 -173 8 -222 0
l-38 -7 29 -17 c34 -21 52 -81 31 -106 -41 -50 -215 -92 -259 -64 -8 5 -15 15
-16 22 0 7 -5 21 -9 32 -5 11 -3 26 4 38 19 30 8 32 -40 8 l-42 -22 -71 21
c-120 35 -310 81 -336 81 -32 0 -46 10 -55 38 l-7 24 -21 -20 c-22 -20 -24
-20 -172 -5 -82 9 -155 17 -161 19 -7 1 -22 24 -34 51 -57 124 -64 134 -108
160 -26 16 -61 27 -83 27 -22 1 -39 4 -39 9 0 4 -28 6 -62 5 -37 -1 -49 -3
-29 -5z m1739 -385 c-18 -28 -94 -68 -128 -68 -17 0 -21 -3 -12 -9 10 -6 10
-10 -2 -20 -12 -10 -15 -8 -20 7 -4 11 -3 27 0 37 8 20 119 75 153 75 22 0 23
-1 9 -22z m-2061 -20 c-3 -8 -6 -5 -6 6 -1 11 2 17 5 13 3 -3 4 -12 1 -19z
m-27 -18 c0 -5 -11 -26 -25 -46 -14 -21 -28 -49 -32 -63 -5 -25 -31 -53 -84
-93 -26 -20 -50 -25 -32 -7 8 8 8 17 2 28 -23 37 42 130 117 170 44 23 54 25
54 11z m2056 -157 c-2 -16 -4 -32 -5 -38 0 -5 -8 -2 -17 7 -18 18 -11 58 11
58 9 0 13 -9 11 -27z m-2127 -35 c-8 -14 -14 -18 -17 -10 -4 13 17 46 25 38 3
-2 -1 -15 -8 -28z m2280 -40 c-11 -20 7 -30 193 -113 64 -28 108 -54 110 -64
8 -36 -14 -96 -53 -140 -51 -58 -92 -81 -149 -82 -59 -1 -102 -17 -47 -18 20
-1 77 -16 125 -35 48 -18 98 -37 112 -41 39 -11 130 -57 130 -67 0 -11 -14
-10 -26 2 -10 10 -138 60 -154 60 -6 0 -10 -4 -10 -9 0 -6 27 -18 60 -27 33
-9 60 -21 60 -25 0 -12 -17 -11 -24 0 -3 5 -15 7 -25 4 -11 -3 -34 2 -52 11
-40 20 -38 20 -48 -6 -5 -14 -5 -28 2 -36 5 -7 7 -15 4 -18 -9 -10 18 -32 47
-40 29 -7 30 -27 3 -32 -11 -2 -15 1 -11 11 4 11 -2 14 -20 12 -17 -2 -26 2
-26 11 0 8 -4 14 -10 14 -5 0 -10 7 -10 16 0 9 -6 14 -12 12 -7 -3 -19 2 -27
10 -13 13 -16 12 -22 -4 -7 -16 -8 -17 -8 -2 -1 28 -19 32 -156 34 -71 2 -143
3 -160 4 -16 1 -128 -1 -247 -4 -171 -5 -218 -3 -218 6 0 9 -3 8 -10 -2 -7
-12 -13 -12 -27 -4 -10 6 -19 18 -21 26 -4 20 27 32 44 17 8 -7 21 -8 31 -3
10 4 23 8 28 9 6 0 15 4 21 8 6 3 62 9 124 11 62 3 115 7 118 11 3 3 -2 5 -11
5 -10 0 -17 5 -17 10 0 6 9 10 20 10 11 0 20 -6 20 -12 0 -9 3 -9 9 1 5 8 24
15 43 16 37 2 85 24 58 25 -184 14 -124 24 135 23 l110 0 -65 12 c-58 11 -74
20 -27 16 17 -2 24 14 9 21 -4 2 -15 22 -24 45 -16 41 -16 43 8 70 27 31 64
107 64 131 0 8 7 24 16 34 12 13 14 21 6 31 -6 7 -15 25 -21 40 -10 25 -9 27
14 25 19 -2 22 -5 14 -20z m-1159 8 c0 -2 2 -10 5 -18 4 -10 -20 -13 -119 -13
-69 1 -128 4 -131 7 -4 3 29 9 72 13 43 3 89 7 103 9 45 5 70 6 70 2z m173
-18 c16 -8 25 -48 11 -48 -4 0 -22 9 -40 21 -25 15 -42 19 -64 14 -25 -6 -30
-4 -30 13 0 17 6 19 53 14 28 -2 60 -9 70 -14z m715 -67 c-13 -15 -25 -27 -26
-25 -6 4 32 53 41 54 5 0 -2 -13 -15 -29z m-2091 -7 c-3 -3 -12 -4 -19 -1 -8
3 -5 6 6 6 11 1 17 -2 13 -5z m131 -18 c13 -14 -14 -20 -89 -22 -61 -1 -84 -6
-99 -19 -15 -14 -17 -21 -9 -32 9 -10 8 -13 -4 -13 -8 0 -20 -7 -27 -15 -14
-17 -50 -20 -50 -5 0 20 57 71 109 98 49 25 61 27 109 21 30 -4 56 -10 60 -13z
m171 17 c-3 -20 2 -34 11 -28 5 3 22 -6 37 -20 l28 -27 -35 17 c-60 30 -90 65
-55 65 8 0 14 -3 14 -7z m68 1 c-3 -3 -12 -4 -19 -1 -8 3 -5 6 6 6 11 1 17 -2
13 -5z m2801 -81 c74 -162 85 -213 61 -282 -11 -32 -23 -39 -34 -21 -4 6 -24
79 -45 163 -34 138 -41 207 -20 207 4 0 21 -30 38 -67z m-2608 -6 c47 -17 87
-32 89 -33 1 -2 -7 -13 -18 -26 l-22 -22 -67 23 c-62 21 -192 79 -147 65 64
-20 75 -22 70 -14 -3 4 -17 11 -31 14 -14 4 -38 14 -52 24 l-25 16 24 7 c13 3
40 -1 59 -9 19 -8 73 -28 120 -45z m2336 22 c38 -26 72 -59 61 -59 -3 0 -38
23 -79 51 -40 28 -62 48 -48 44 14 -4 43 -20 66 -36z m-3 -101 c25 -22 41 -46
46 -71 9 -37 -4 -62 -19 -37 -9 15 -65 -14 -106 -56 -30 -30 -74 -49 -104 -45
-13 2 -13 1 0 -8 32 -22 -20 -23 -84 -1 l-64 21 39 41 c52 55 78 112 82 180 2
32 6 60 9 64 4 3 21 -1 37 -9 22 -11 31 -12 32 -4 0 7 5 1 10 -13 13 -31 5
-100 -17 -141 -8 -17 -11 -28 -6 -25 35 21 51 145 27 201 -5 12 9 3 36 -22 24
-23 61 -57 82 -75z m-914 35 c-18 -21 -52 -57 -76 -81 -24 -24 -43 -48 -43
-54 0 -5 -6 -8 -14 -5 -7 3 -19 0 -25 -6 -8 -8 -11 -5 -11 11 0 12 9 26 19 32
11 5 25 16 33 23 26 26 139 117 145 117 3 0 -10 -17 -28 -37z m-1974 1 c0 -12
-8 -20 -22 -22 -19 -3 -23 1 -21 20 3 31 43 32 43 2z m254 10 c19 -6 22 -4 16
6 -16 26 50 -28 99 -80 31 -33 45 -55 39 -61 -6 -6 -39 -12 -74 -14 -35 -2
-93 -6 -129 -9 -59 -4 -69 -2 -127 30 -35 19 -63 31 -63 27 0 -10 -20 19 -20
30 0 4 7 7 15 7 8 0 15 6 15 13 0 15 15 19 73 19 28 0 42 6 55 24 17 25 42 27
101 8z m1681 3 c0 -2 -15 -16 -32 -33 l-33 -29 29 33 c28 30 36 37 36 29z
m-1857 -14 c-7 -2 -19 -2 -25 0 -7 3 -2 5 12 5 14 0 19 -2 13 -5z m762 -38
c61 -13 148 -31 195 -39 270 -48 413 -76 418 -80 3 -3 0 -6 -7 -6 -8 0 -11 -8
-8 -20 4 -16 1 -20 -11 -16 -9 2 -44 7 -77 11 -76 9 -540 92 -580 105 -16 5
-49 14 -72 20 -34 8 -41 14 -36 28 6 15 5 15 -10 3 -15 -12 -17 -12 -11 3 4
10 13 15 20 12 7 -3 16 0 20 5 3 6 16 8 28 5 11 -3 71 -17 131 -31z m-895 16
c0 -5 -6 -14 -14 -20 -12 -10 -13 -8 -9 8 5 21 23 30 23 12z m1576 -150 c-3
-5 17 -14 44 -21 28 -7 47 -16 44 -22 -6 -9 91 -5 196 8 23 2 30 1 20 -5 -8
-5 -64 -14 -125 -20 -60 -7 -128 -14 -150 -18 -36 -5 -38 -4 -26 11 15 18 1
22 -17 4 -9 -9 -13 -7 -18 6 -8 20 11 66 26 66 6 0 9 -4 6 -9z m1514 -1 c0 -5
-4 -10 -10 -10 -5 0 -10 5 -10 10 0 6 5 10 10 10 6 0 10 -4 10 -10z m-1559
-23 c-10 -9 -11 -8 -5 6 3 10 9 15 12 12 3 -3 0 -11 -7 -18z m162 16 c-7 -2
-19 -2 -25 0 -7 3 -2 5 12 5 14 0 19 -2 13 -5z m171 -2 c4 -5 -3 -7 -14 -4
-23 6 -26 13 -6 13 8 0 17 -4 20 -9z m1206 -21 c0 -5 -4 -10 -10 -10 -5 0 -10
5 -10 10 0 6 5 10 10 10 6 0 10 -4 10 -10z m-1097 -7 c-13 -2 -35 -2 -50 0
-16 2 -5 4 22 4 28 0 40 -2 28 -4z m1077 -31 c0 -4 -7 -18 -16 -30 -8 -12 -12
-22 -9 -22 3 0 3 -5 -1 -11 -14 -23 -24 8 -13 39 9 28 39 46 39 24z m-1542
-55 c1 -12 -5 -39 -12 -61 -13 -38 -13 -38 -20 -11 -7 27 9 95 23 95 3 0 7
-10 9 -23z m-1215 -34 c93 -26 60 -24 -59 2 -75 17 -92 23 -54 20 30 -3 81
-13 113 -22z m2707 -14 c0 -5 -7 -9 -15 -9 -9 0 -12 6 -9 15 6 15 24 11 24 -6z
m-352 -37 c6 -18 -15 -14 -22 4 -4 10 -1 14 6 12 6 -2 14 -10 16 -16z m317 -1
c3 -5 2 -12 -3 -15 -5 -3 -9 1 -9 9 0 17 3 19 12 6z m-17 -97 c28 -34 91 -154
106 -201 9 -27 -20 -93 -41 -93 -21 0 -52 38 -111 136 -58 97 -64 135 -30 171
29 31 41 29 76 -13z m-223 16 c-3 -5 -11 -10 -16 -10 -6 0 -7 5 -4 10 3 6 11
10 16 10 6 0 7 -4 4 -10z m-435 -20 c46 -11 153 -50 148 -55 -2 -2 -36 8 -77
22 -53 17 -109 27 -195 32 l-121 8 100 1 c55 1 120 -3 145 -8z m-253 -6 c-3
-3 -12 -4 -19 -1 -8 3 -5 6 6 6 11 1 17 -2 13 -5z m-1764 -46 c75 -35 156
-113 198 -191 32 -57 34 -69 34 -153 0 -83 -2 -94 -30 -140 -56 -90 -159 -134
-268 -115 -133 23 -243 105 -303 226 -31 62 -36 83 -36 143 -1 119 57 208 160
247 60 23 175 15 245 -17z m907 -195 c22 -22 -215 79 -250 107 -14 11 36 -8
110 -41 74 -34 137 -64 140 -66z m1128 -23 c79 -37 159 -116 197 -195 24 -49
29 -74 29 -135 1 -64 -3 -82 -28 -127 -50 -91 -147 -143 -265 -143 -131 0
-226 41 -308 134 -121 138 -137 302 -40 412 90 104 261 126 415 54z m-1069 4
c14 -12 -19 -1 -35 12 -18 14 -18 14 6 3 14 -6 27 -13 29 -15z m1822 -7 c-10
-9 -11 -8 -5 6 3 10 9 15 12 12 3 -3 0 -11 -7 -18z"/>
<path d="M3628 1949 c-17 -18 -17 -19 4 -30 29 -16 78 -29 77 -21 -1 4 0 10 1
15 7 22 4 33 -15 44 -28 17 -47 15 -67 -8z"/>
<path d="M3425 1670 c3 -5 8 -10 11 -10 2 0 4 5 4 10 0 6 -5 10 -11 10 -5 0
-7 -4 -4 -10z"/>
<path d="M3545 1633 c15 -15 65 -25 65 -13 0 5 -9 10 -19 10 -11 0 -28 3 -38
6 -12 5 -15 4 -8 -3z"/>
<path d="M3668 1633 c7 -3 16 -2 19 1 4 3 -2 6 -13 5 -11 0 -14 -3 -6 -6z"/>
<path d="M3620 1610 c0 -14 38 -32 45 -21 3 6 -3 15 -14 20 -24 14 -31 14 -31
1z"/>
<path d="M1120 1846 c0 -2 7 -6 15 -10 8 -3 15 -1 15 4 0 6 -7 10 -15 10 -8 0
-15 -2 -15 -4z"/>
<path d="M1200 1333 c1 -5 19 -21 42 -37 30 -20 46 -26 57 -19 30 19 21 32
-30 47 -59 18 -69 19 -69 9z"/>
<path d="M1022 1245 c-26 -57 -10 -79 43 -63 17 6 36 12 43 14 18 5 -35 74
-58 74 -9 0 -22 -11 -28 -25z"/>
<path d="M1440 1150 c-9 -16 -6 -26 17 -55 46 -57 57 -42 23 33 -22 48 -25 50
-40 22z"/>
<path d="M1212 1148 c-30 -30 0 -92 48 -103 30 -6 45 2 54 33 6 17 0 29 -23
52 -31 32 -59 38 -79 18z"/>
<path d="M1110 1013 c-19 -3 -39 -8 -44 -13 -8 -8 69 -90 85 -90 21 0 25 102
4 105 -5 1 -26 0 -45 -2z"/>
<path d="M1345 919 c-9 -53 2 -65 49 -49 43 14 45 28 8 63 -38 37 -49 34 -57
-14z"/>
<path d="M3302 1078 c19 -25 35 -34 62 -36 49 -4 45 10 -13 41 -65 36 -79 34
-49 -5z"/>
<path d="M3036 1079 c-43 -34 -34 -49 29 -49 57 0 61 3 49 48 -8 28 -42 29
-78 1z"/>
<path d="M3196 934 c-18 -17 -21 -50 -7 -58 5 -4 7 4 4 16 -3 14 2 10 14 -12
11 -21 25 -34 36 -34 9 1 17 -2 17 -7 0 -14 14 -11 36 7 10 8 12 12 4 8 -12
-6 -13 -4 -2 7 19 21 14 46 -14 68 -32 25 -67 27 -88 5z"/>
<path d="M3451 871 c-12 -8 -10 -16 12 -50 34 -51 57 -54 57 -7 0 19 -3 41 -6
50 -7 17 -41 21 -63 7z"/>
<path d="M2990 854 c0 -21 56 -94 72 -94 11 0 39 72 34 87 -5 13 -106 20 -106
7z"/>
<path d="M3262 704 c-18 -28 -21 -39 -11 -50 15 -18 69 -18 94 0 17 13 17 15
-10 50 -15 20 -32 36 -39 36 -6 0 -21 -16 -34 -36z"/>
<path d="M1538 2773 c6 -2 18 -2 25 0 6 3 1 5 -13 5 -14 0 -19 -2 -12 -5z"/>
<path d="M1290 2528 c-17 -42 -17 -114 0 -103 5 3 11 1 15 -5 9 -15 28 -12 22
4 -3 7 -2 30 3 51 6 29 5 35 -5 31 -10 -3 -13 4 -10 30 4 45 -2 43 -25 -8z
m20 -53 c0 -8 -4 -15 -10 -15 -5 0 -10 7 -10 15 0 8 5 15 10 15 6 0 10 -7 10
-15z"/>
<path d="M1344 2562 c4 -7 3 -12 -2 -12 -6 0 -12 -7 -15 -14 -4 -10 -1 -13 8
-10 18 7 27 32 13 40 -7 4 -8 3 -4 -4z"/>
<path d="M3543 2363 c15 -2 37 -2 50 0 12 2 0 4 -28 4 -27 0 -38 -2 -22 -4z"/>
<path d="M3658 2353 c7 -3 16 -2 19 1 4 3 -2 6 -13 5 -11 0 -14 -3 -6 -6z"/>
<path d="M2913 2323 c9 -2 23 -2 30 0 6 3 -1 5 -18 5 -16 0 -22 -2 -12 -5z"/>
<path d="M3780 2276 c0 -2 7 -7 16 -10 8 -3 12 -2 9 4 -6 10 -25 14 -25 6z"/>
<path d="M4107 2069 c7 -7 15 -10 18 -7 3 3 -2 9 -12 12 -14 6 -15 5 -6 -5z"/>
</g>
</svg>
